<?xml version="1.0" encoding="utf-8"?>
<svg width="120px" height="120px" viewBox="2.078 3.122 20 20" xmlns="http://www.w3.org/2000/svg">
  <rect style="fill: rgb(79, 190, 117);" x="2.078" y="3.122" width="20" height="20" rx="2" ry="2"/>
  <path d="M 12.982 5.807 C 12.568 4.901 11.46 3.371 9.382 4.277 C 8.137 4.832 7.444 5.18 7.444 5.18 L 5.575 6.016 C 5.091 6.223 3.913 5.876 3.291 5.667 C 3.152 5.598 2.944 5.807 3.014 6.016 C 3.5 6.849 4.607 8.449 6.613 7.477 C 7.859 6.919 10.42 5.807 10.42 5.807 C 10.905 5.528 12.081 5.876 12.705 6.153 C 12.913 6.153 13.052 6.016 12.982 5.807 Z M 8.552 8.449 C 8.344 8.588 7.444 9.007 7.444 9.007 L 6.544 9.421 C 6.06 9.7 5.091 9.351 4.537 9.077 C 4.329 9.007 4.191 9.212 4.26 9.421 C 4.675 10.257 5.644 11.718 7.444 10.812 C 8.552 10.257 9.452 9.909 9.452 9.909 C 9.937 9.63 10.905 9.978 11.46 10.187 C 11.668 10.257 11.804 10.048 11.737 9.909 C 11.321 9.077 10.352 7.543 8.552 8.449 Z M 7.929 12.134 C 7.72 12.272 7.444 12.481 7.444 12.481 C 7.098 12.69 6.337 12.412 5.921 12.204 C 5.783 12.134 5.644 12.342 5.713 12.481 C 5.991 13.248 6.752 14.569 8.068 13.732 L 8.552 13.458 C 8.968 13.248 9.66 13.524 10.075 13.732 C 10.213 13.802 10.352 13.594 10.282 13.388 C 10.005 12.69 9.313 11.369 7.929 12.134 Z" style="fill: rgb(255, 255, 255);"/>
  <path d="M 11.072 21.235 C 10.639 21.235 10.299 21.165 10.052 21.025 C 9.805 20.885 9.635 20.678 9.542 20.405 C 9.442 20.132 9.392 19.795 9.392 19.395 L 9.392 15.485 L 10.632 15.485 L 10.632 19.585 C 10.632 19.705 10.642 19.822 10.662 19.935 C 10.675 20.055 10.715 20.152 10.782 20.225 C 10.842 20.298 10.939 20.335 11.072 20.335 C 11.205 20.335 11.302 20.298 11.362 20.225 C 11.422 20.152 11.462 20.055 11.482 19.935 C 11.495 19.822 11.502 19.705 11.502 19.585 L 11.502 15.485 L 12.752 15.485 L 12.752 19.395 C 12.752 19.795 12.702 20.132 12.602 20.405 C 12.502 20.678 12.329 20.885 12.082 21.025 C 11.842 21.165 11.505 21.235 11.072 21.235 ZM 14.798 21.155 L 13.548 21.155 L 13.548 15.485 L 15.108 15.485 C 15.495 15.485 15.828 15.528 16.108 15.615 C 16.388 15.695 16.605 15.845 16.758 16.065 C 16.911 16.278 16.988 16.585 16.988 16.985 C 16.988 17.218 16.971 17.425 16.938 17.605 C 16.898 17.785 16.828 17.942 16.728 18.075 C 16.628 18.208 16.485 18.322 16.298 18.415 L 17.078 21.155 L 15.778 21.155 L 15.158 18.615 L 14.798 18.615 L 14.798 21.155 Z M 14.798 16.325 L 14.798 17.895 L 15.148 17.895 C 15.328 17.895 15.468 17.862 15.568 17.795 C 15.661 17.735 15.728 17.645 15.768 17.525 C 15.808 17.405 15.828 17.262 15.828 17.095 C 15.828 16.855 15.785 16.665 15.698 16.525 C 15.611 16.392 15.448 16.325 15.208 16.325 L 14.798 16.325 ZM 20.28 21.155 L 17.72 21.155 L 17.72 15.485 L 18.97 15.485 L 18.97 20.305 L 20.28 20.305 L 20.28 21.155 Z" transform="matrix(1, 0, 0, 1, 0, 0)" style="white-space: pre; fill: rgb(255, 255, 255);"/>
</svg>