<?xml version="1.0" encoding="utf-8"?>
<svg width="120px" height="120px" viewBox="0 0 120 120" version="1.1" xmlns="http://www.w3.org/2000/svg">
  <g stroke="none" stroke-width="1" fill="none" fill-rule="evenodd">
    <path d="M120,108 C120,114.6 114.6,120 108,120 L12,120 C5.4,120 0,114.6 0,108 L0,12 C0,5.4 5.4,0 12,0 L108,0 C114.6,0 120,5.4 120,12 L120,108 L120,108 Z" id="Shape" style="fill: rgb(79, 190, 117);"/>
    <path d="M 67.714 111.406 C 65.726 111.406 64.166 111.084 63.03 110.44 C 61.896 109.798 61.116 108.848 60.688 107.594 C 60.23 106.34 60 104.792 60 102.956 L 60 85 L 65.694 85 L 65.694 103.828 C 65.694 104.38 65.74 104.916 65.832 105.436 C 65.892 105.986 66.076 106.432 66.384 106.768 C 66.658 107.102 67.104 107.272 67.714 107.272 C 68.326 107.272 68.772 107.102 69.046 106.768 C 69.322 106.432 69.506 105.986 69.598 105.436 C 69.658 104.916 69.69 104.38 69.69 103.828 L 69.69 85 L 75.43 85 L 75.43 102.956 C 75.43 104.792 75.2 106.34 74.74 107.594 C 74.282 108.848 73.488 109.798 72.354 110.44 C 71.25 111.084 69.704 111.406 67.714 111.406 Z M 84.826 111.038 L 79.086 111.038 L 79.086 85 L 86.25 85 C 88.026 85 89.556 85.198 90.842 85.596 C 92.128 85.964 93.124 86.654 93.826 87.664 C 94.528 88.642 94.882 90.052 94.882 91.888 C 94.882 92.958 94.804 93.908 94.652 94.736 C 94.47 95.562 94.148 96.284 93.688 96.894 C 93.23 97.504 92.572 98.028 91.714 98.456 L 95.296 111.038 L 89.326 111.038 L 86.478 99.374 L 84.826 99.374 L 84.826 111.038 Z M 84.826 88.858 L 84.826 96.068 L 86.432 96.068 C 87.26 96.068 87.902 95.916 88.362 95.608 C 88.788 95.332 89.096 94.92 89.28 94.368 C 89.464 93.818 89.556 93.16 89.556 92.394 C 89.556 91.292 89.358 90.418 88.958 89.776 C 88.558 89.166 87.81 88.858 86.708 88.858 L 84.826 88.858 Z M 110 111.038 L 98.244 111.038 L 98.244 85 L 103.984 85 L 103.984 107.134 L 110 107.134 L 110 111.038 Z" style="white-space: pre; fill: rgb(255, 255, 255);"/>
    <path d="M 79.863 18.553 C 76.759 11.757 68.449 0.282 52.864 7.077 C 43.526 11.24 38.329 13.85 38.329 13.85 L 24.313 20.12 C 20.683 21.673 11.846 19.07 7.181 17.503 C 6.14 16.985 4.58 18.553 5.105 20.12 C 8.749 26.368 17.053 38.366 32.096 31.078 C 41.441 26.893 60.649 18.553 60.649 18.553 C 64.287 16.46 73.107 19.07 77.787 21.148 C 79.345 21.148 80.388 20.12 79.863 18.553 Z M 46.639 38.366 C 45.079 39.409 38.329 42.551 38.329 42.551 L 31.579 45.656 C 27.95 47.749 20.683 45.131 16.528 43.076 C 14.968 42.551 13.933 44.089 14.45 45.656 C 17.563 51.926 24.83 62.884 38.329 56.089 C 46.639 51.926 53.389 49.316 53.389 49.316 C 57.026 47.224 64.287 49.834 68.449 51.401 C 70.009 51.926 71.029 50.359 70.527 49.316 C 67.407 43.076 60.139 31.573 46.639 38.366 Z M 41.966 66.004 C 40.399 67.039 38.329 68.606 38.329 68.606 C 35.734 70.174 30.028 68.089 26.908 66.529 C 25.873 66.004 24.83 67.564 25.348 68.606 C 27.433 74.359 33.139 84.267 43.009 77.989 L 46.639 75.934 C 49.759 74.359 54.949 76.429 58.061 77.989 C 59.096 78.514 60.139 76.954 59.614 75.409 C 57.536 70.174 52.346 60.266 41.966 66.004 Z" style="fill: rgb(255, 255, 255);"/>
  </g>
</svg>