<?xml version="1.0" encoding="utf-8"?>
<svg width="120px" height="120px" viewBox="0 0 120 120" version="1.1" xmlns="http://www.w3.org/2000/svg">
  <g stroke="none" stroke-width="1" fill="none" fill-rule="evenodd">
    <path d="M120,108 C120,114.6 114.6,120 108,120 L12,120 C5.4,120 0,114.6 0,108 L0,12 C0,5.4 5.4,0 12,0 L108,0 C114.6,0 120,5.4 120,12 L120,108 L120,108 Z" id="Shape" style="fill: rgb(79, 190, 117);"/>
    <path d="M 79.863 18.553 C 76.759 11.757 68.449 0.282 52.864 7.077 C 43.526 11.24 38.329 13.85 38.329 13.85 L 24.313 20.12 C 20.683 21.673 11.846 19.07 7.181 17.503 C 6.14 16.985 4.58 18.553 5.105 20.12 C 8.749 26.368 17.053 38.366 32.096 31.078 C 41.441 26.893 60.649 18.553 60.649 18.553 C 64.287 16.46 73.107 19.07 77.787 21.148 C 79.345 21.148 80.388 20.12 79.863 18.553 Z M 46.639 38.366 C 45.079 39.409 38.329 42.551 38.329 42.551 L 31.579 45.656 C 27.95 47.749 20.683 45.131 16.528 43.076 C 14.968 42.551 13.933 44.089 14.45 45.656 C 17.563 51.926 24.83 62.884 38.329 56.089 C 46.639 51.926 53.389 49.316 53.389 49.316 C 57.026 47.224 64.287 49.834 68.449 51.401 C 70.009 51.926 71.029 50.359 70.527 49.316 C 67.407 43.076 60.139 31.573 46.639 38.366 Z M 41.966 66.004 C 40.399 67.039 38.329 68.606 38.329 68.606 C 35.734 70.174 30.028 68.089 26.908 66.529 C 25.873 66.004 24.83 67.564 25.348 68.606 C 27.433 74.359 33.139 84.267 43.009 77.989 L 46.639 75.934 C 49.759 74.359 54.949 76.429 58.061 77.989 C 59.096 78.514 60.139 76.954 59.614 75.409 C 57.536 70.174 52.346 60.266 41.966 66.004 Z" style="fill: rgb(255, 255, 255);"/>
    <path d="M 45.984 113.928 L 39.014 113.928 L 39.014 91.248 L 44.924 91.248 C 45.891 91.248 46.811 91.321 47.684 91.468 C 48.551 91.621 49.321 91.908 49.994 92.328 C 50.661 92.748 51.187 93.345 51.574 94.118 C 51.954 94.891 52.144 95.915 52.144 97.188 C 52.144 98.101 52.011 98.871 51.744 99.498 C 51.471 100.118 51.087 100.615 50.594 100.988 C 50.101 101.361 49.507 101.615 48.814 101.748 C 49.694 101.861 50.431 102.145 51.024 102.598 C 51.624 103.058 52.077 103.671 52.384 104.438 C 52.691 105.205 52.844 106.128 52.844 107.208 C 52.844 108.381 52.691 109.395 52.384 110.248 C 52.077 111.095 51.634 111.788 51.054 112.328 C 50.474 112.875 49.761 113.278 48.914 113.538 C 48.061 113.798 47.084 113.928 45.984 113.928 Z M 44.024 103.628 L 44.024 110.428 L 45.094 110.428 C 46.194 110.428 46.954 110.148 47.374 109.588 C 47.794 109.028 48.004 108.208 48.004 107.128 C 48.004 106.268 47.911 105.585 47.724 105.078 C 47.537 104.578 47.227 104.211 46.794 103.978 C 46.367 103.745 45.791 103.628 45.064 103.628 L 44.024 103.628 Z M 44.024 94.608 L 44.024 100.318 L 45.004 100.318 C 45.771 100.318 46.351 100.201 46.744 99.968 C 47.137 99.735 47.404 99.395 47.544 98.948 C 47.684 98.501 47.754 97.961 47.754 97.328 C 47.754 96.728 47.644 96.228 47.424 95.828 C 47.211 95.428 46.894 95.125 46.474 94.918 C 46.054 94.711 45.527 94.608 44.894 94.608 L 44.024 94.608 ZM 58.078 114.208 C 57.425 114.208 56.871 114.045 56.418 113.718 C 55.958 113.391 55.618 112.938 55.398 112.358 C 55.171 111.778 55.058 111.135 55.058 110.428 L 55.058 97.748 L 59.618 97.748 L 59.618 109.898 C 59.618 110.291 59.688 110.595 59.828 110.808 C 59.968 111.021 60.218 111.128 60.578 111.128 C 60.778 111.128 60.991 111.078 61.218 110.978 C 61.445 110.871 61.678 110.755 61.918 110.628 L 61.918 97.748 L 66.458 97.748 L 66.458 113.928 L 61.918 113.928 L 61.918 112.448 C 61.338 112.988 60.728 113.415 60.088 113.728 C 59.441 114.048 58.771 114.208 58.078 114.208 ZM 74.35 114.098 C 73.137 114.098 72.2 113.921 71.54 113.568 C 70.873 113.208 70.42 112.688 70.18 112.008 C 69.933 111.328 69.81 110.501 69.81 109.528 L 69.81 100.738 L 68.25 100.738 L 68.25 97.748 L 69.81 97.748 L 69.81 92.818 L 74.43 92.818 L 74.43 97.748 L 76.73 97.748 L 76.73 100.738 L 74.43 100.738 L 74.43 109.088 C 74.43 109.555 74.567 109.888 74.84 110.088 C 75.113 110.295 75.453 110.398 75.86 110.398 C 76.107 110.398 76.33 110.385 76.53 110.358 C 76.737 110.331 76.923 110.308 77.09 110.288 L 77.09 113.868 C 76.85 113.908 76.47 113.955 75.95 114.008 C 75.423 114.068 74.89 114.098 74.35 114.098 ZM 84.262 114.098 C 83.049 114.098 82.112 113.921 81.452 113.568 C 80.785 113.208 80.332 112.688 80.092 112.008 C 79.845 111.328 79.722 110.501 79.722 109.528 L 79.722 100.738 L 78.162 100.738 L 78.162 97.748 L 79.722 97.748 L 79.722 92.818 L 84.342 92.818 L 84.342 97.748 L 86.642 97.748 L 86.642 100.738 L 84.342 100.738 L 84.342 109.088 C 84.342 109.555 84.479 109.888 84.752 110.088 C 85.025 110.295 85.365 110.398 85.772 110.398 C 86.019 110.398 86.242 110.385 86.442 110.358 C 86.649 110.331 86.835 110.308 87.002 110.288 L 87.002 113.868 C 86.762 113.908 86.382 113.955 85.862 114.008 C 85.335 114.068 84.802 114.098 84.262 114.098 ZM 94.484 114.208 C 93.324 114.208 92.321 114.011 91.474 113.618 C 90.621 113.225 89.967 112.638 89.514 111.858 C 89.054 111.071 88.824 110.091 88.824 108.918 L 88.824 102.758 C 88.824 101.578 89.054 100.598 89.514 99.818 C 89.967 99.031 90.621 98.441 91.474 98.048 C 92.321 97.661 93.324 97.468 94.484 97.468 C 95.637 97.468 96.641 97.661 97.494 98.048 C 98.341 98.441 98.997 99.031 99.464 99.818 C 99.931 100.598 100.164 101.578 100.164 102.758 L 100.164 108.918 C 100.164 110.091 99.931 111.071 99.464 111.858 C 98.997 112.638 98.341 113.225 97.494 113.618 C 96.641 114.011 95.637 114.208 94.484 114.208 Z M 94.514 111.188 C 94.807 111.188 95.041 111.108 95.214 110.948 C 95.381 110.788 95.497 110.565 95.564 110.278 C 95.624 109.985 95.654 109.635 95.654 109.228 L 95.654 102.448 C 95.654 102.035 95.624 101.685 95.564 101.398 C 95.497 101.111 95.381 100.888 95.214 100.728 C 95.041 100.568 94.807 100.488 94.514 100.488 C 94.214 100.488 93.981 100.568 93.814 100.728 C 93.641 100.888 93.517 101.111 93.444 101.398 C 93.371 101.685 93.334 102.035 93.334 102.448 L 93.334 109.228 C 93.334 109.635 93.371 109.985 93.444 110.278 C 93.517 110.565 93.641 110.788 93.814 110.948 C 93.981 111.108 94.214 111.188 94.514 111.188 ZM 107.248 113.928 L 102.688 113.928 L 102.688 97.748 L 107.248 97.748 L 107.248 99.368 C 107.848 98.768 108.468 98.301 109.108 97.968 C 109.755 97.635 110.431 97.468 111.138 97.468 C 111.811 97.468 112.368 97.631 112.808 97.958 C 113.248 98.285 113.578 98.731 113.798 99.298 C 114.025 99.865 114.138 100.515 114.138 101.248 L 114.138 113.928 L 109.598 113.928 L 109.598 101.888 C 109.598 101.495 109.535 101.195 109.408 100.988 C 109.275 100.788 109.031 100.688 108.678 100.688 C 108.491 100.688 108.271 100.738 108.018 100.838 C 107.765 100.938 107.508 101.081 107.248 101.268 L 107.248 113.928 Z" transform="matrix(1, 0, 0, 1, 0, 0)" style="fill: rgb(255, 255, 255); white-space: pre;"/>
  </g>
</svg>