<?xml version="1.0" encoding="utf-8"?>
<svg width="120px" height="120px" viewBox="0 0 120 120" version="1.1" xmlns="http://www.w3.org/2000/svg">
  <g stroke="none" stroke-width="1" fill="none" fill-rule="evenodd">
    <path d="M120,108 C120,114.6 114.6,120 108,120 L12,120 C5.4,120 0,114.6 0,108 L0,12 C0,5.4 5.4,0 12,0 L108,0 C114.6,0 120,5.4 120,12 L120,108 L120,108 Z" id="Shape" style="fill: rgb(79, 190, 117);"/>
    <path d="M 79.863 18.553 C 76.759 11.757 68.449 0.282 52.864 7.077 C 43.526 11.24 38.329 13.85 38.329 13.85 L 24.313 20.12 C 20.683 21.673 11.846 19.07 7.181 17.503 C 6.14 16.985 4.58 18.553 5.105 20.12 C 8.749 26.368 17.053 38.366 32.096 31.078 C 41.441 26.893 60.649 18.553 60.649 18.553 C 64.287 16.46 73.107 19.07 77.787 21.148 C 79.345 21.148 80.388 20.12 79.863 18.553 Z M 46.639 38.366 C 45.079 39.409 38.329 42.551 38.329 42.551 L 31.579 45.656 C 27.95 47.749 20.683 45.131 16.528 43.076 C 14.968 42.551 13.933 44.089 14.45 45.656 C 17.563 51.926 24.83 62.884 38.329 56.089 C 46.639 51.926 53.389 49.316 53.389 49.316 C 57.026 47.224 64.287 49.834 68.449 51.401 C 70.009 51.926 71.029 50.359 70.527 49.316 C 67.407 43.076 60.139 31.573 46.639 38.366 Z M 41.966 66.004 C 40.399 67.039 38.329 68.606 38.329 68.606 C 35.734 70.174 30.028 68.089 26.908 66.529 C 25.873 66.004 24.83 67.564 25.348 68.606 C 27.433 74.359 33.139 84.267 43.009 77.989 L 46.639 75.934 C 49.759 74.359 54.949 76.429 58.061 77.989 C 59.096 78.514 60.139 76.954 59.614 75.409 C 57.536 70.174 52.346 60.266 41.966 66.004 Z" style="fill: rgb(255, 255, 255);"/>
    <path d="M 34.273 113.93 L 27.303 113.93 L 27.303 91.25 L 33.213 91.25 C 34.18 91.25 35.1 91.323 35.973 91.47 C 36.84 91.623 37.61 91.91 38.283 92.33 C 38.95 92.75 39.476 93.347 39.863 94.12 C 40.243 94.893 40.433 95.917 40.433 97.19 C 40.433 98.103 40.3 98.873 40.033 99.5 C 39.76 100.12 39.376 100.617 38.883 100.99 C 38.39 101.363 37.796 101.617 37.103 101.75 C 37.983 101.863 38.72 102.147 39.313 102.6 C 39.913 103.06 40.366 103.673 40.673 104.44 C 40.98 105.207 41.133 106.13 41.133 107.21 C 41.133 108.383 40.98 109.397 40.673 110.25 C 40.366 111.097 39.923 111.79 39.343 112.33 C 38.763 112.877 38.05 113.28 37.203 113.54 C 36.35 113.8 35.373 113.93 34.273 113.93 Z M 32.313 103.63 L 32.313 110.43 L 33.383 110.43 C 34.483 110.43 35.243 110.15 35.663 109.59 C 36.083 109.03 36.293 108.21 36.293 107.13 C 36.293 106.27 36.2 105.587 36.013 105.08 C 35.826 104.58 35.516 104.213 35.083 103.98 C 34.656 103.747 34.08 103.63 33.353 103.63 L 32.313 103.63 Z M 32.313 94.61 L 32.313 100.32 L 33.293 100.32 C 34.06 100.32 34.64 100.203 35.033 99.97 C 35.426 99.737 35.693 99.397 35.833 98.95 C 35.973 98.503 36.043 97.963 36.043 97.33 C 36.043 96.73 35.933 96.23 35.713 95.83 C 35.5 95.43 35.183 95.127 34.763 94.92 C 34.343 94.713 33.816 94.61 33.183 94.61 L 32.313 94.61 ZM 46.367 114.21 C 45.714 114.21 45.16 114.047 44.707 113.72 C 44.247 113.393 43.907 112.94 43.687 112.36 C 43.46 111.78 43.347 111.137 43.347 110.43 L 43.347 97.75 L 47.907 97.75 L 47.907 109.9 C 47.907 110.293 47.977 110.597 48.117 110.81 C 48.257 111.023 48.507 111.13 48.867 111.13 C 49.067 111.13 49.28 111.08 49.507 110.98 C 49.734 110.873 49.967 110.757 50.207 110.63 L 50.207 97.75 L 54.747 97.75 L 54.747 113.93 L 50.207 113.93 L 50.207 112.45 C 49.627 112.99 49.017 113.417 48.377 113.73 C 47.73 114.05 47.06 114.21 46.367 114.21 ZM 62.639 114.1 C 61.426 114.1 60.489 113.923 59.829 113.57 C 59.162 113.21 58.709 112.69 58.469 112.01 C 58.222 111.33 58.099 110.503 58.099 109.53 L 58.099 100.74 L 56.539 100.74 L 56.539 97.75 L 58.099 97.75 L 58.099 92.82 L 62.719 92.82 L 62.719 97.75 L 65.019 97.75 L 65.019 100.74 L 62.719 100.74 L 62.719 109.09 C 62.719 109.557 62.856 109.89 63.129 110.09 C 63.402 110.297 63.742 110.4 64.149 110.4 C 64.396 110.4 64.619 110.387 64.819 110.36 C 65.026 110.333 65.212 110.31 65.379 110.29 L 65.379 113.87 C 65.139 113.91 64.759 113.957 64.239 114.01 C 63.712 114.07 63.179 114.1 62.639 114.1 ZM 72.551 114.1 C 71.338 114.1 70.401 113.923 69.741 113.57 C 69.074 113.21 68.621 112.69 68.381 112.01 C 68.134 111.33 68.011 110.503 68.011 109.53 L 68.011 100.74 L 66.451 100.74 L 66.451 97.75 L 68.011 97.75 L 68.011 92.82 L 72.631 92.82 L 72.631 97.75 L 74.931 97.75 L 74.931 100.74 L 72.631 100.74 L 72.631 109.09 C 72.631 109.557 72.768 109.89 73.041 110.09 C 73.314 110.297 73.654 110.4 74.061 110.4 C 74.308 110.4 74.531 110.387 74.731 110.36 C 74.938 110.333 75.124 110.31 75.291 110.29 L 75.291 113.87 C 75.051 113.91 74.671 113.957 74.151 114.01 C 73.624 114.07 73.091 114.1 72.551 114.1 ZM 82.773 114.21 C 81.613 114.21 80.61 114.013 79.763 113.62 C 78.91 113.227 78.256 112.64 77.803 111.86 C 77.343 111.073 77.113 110.093 77.113 108.92 L 77.113 102.76 C 77.113 101.58 77.343 100.6 77.803 99.82 C 78.256 99.033 78.91 98.443 79.763 98.05 C 80.61 97.663 81.613 97.47 82.773 97.47 C 83.926 97.47 84.93 97.663 85.783 98.05 C 86.63 98.443 87.286 99.033 87.753 99.82 C 88.22 100.6 88.453 101.58 88.453 102.76 L 88.453 108.92 C 88.453 110.093 88.22 111.073 87.753 111.86 C 87.286 112.64 86.63 113.227 85.783 113.62 C 84.93 114.013 83.926 114.21 82.773 114.21 Z M 82.803 111.19 C 83.096 111.19 83.33 111.11 83.503 110.95 C 83.67 110.79 83.786 110.567 83.853 110.28 C 83.913 109.987 83.943 109.637 83.943 109.23 L 83.943 102.45 C 83.943 102.037 83.913 101.687 83.853 101.4 C 83.786 101.113 83.67 100.89 83.503 100.73 C 83.33 100.57 83.096 100.49 82.803 100.49 C 82.503 100.49 82.27 100.57 82.103 100.73 C 81.93 100.89 81.806 101.113 81.733 101.4 C 81.66 101.687 81.623 102.037 81.623 102.45 L 81.623 109.23 C 81.623 109.637 81.66 109.987 81.733 110.28 C 81.806 110.567 81.93 110.79 82.103 110.95 C 82.27 111.11 82.503 111.19 82.803 111.19 ZM 95.537 113.93 L 90.977 113.93 L 90.977 97.75 L 95.537 97.75 L 95.537 99.37 C 96.137 98.77 96.757 98.303 97.397 97.97 C 98.044 97.637 98.72 97.47 99.427 97.47 C 100.1 97.47 100.657 97.633 101.097 97.96 C 101.537 98.287 101.867 98.733 102.087 99.3 C 102.314 99.867 102.427 100.517 102.427 101.25 L 102.427 113.93 L 97.887 113.93 L 97.887 101.89 C 97.887 101.497 97.824 101.197 97.697 100.99 C 97.564 100.79 97.32 100.69 96.967 100.69 C 96.78 100.69 96.56 100.74 96.307 100.84 C 96.054 100.94 95.797 101.083 95.537 101.27 L 95.537 113.93 ZM 110.153 114.21 C 108.733 114.21 107.553 113.893 106.613 113.26 C 105.673 112.627 104.903 111.59 104.303 110.15 L 107.413 108.78 C 107.713 109.507 108.063 110.08 108.463 110.5 C 108.863 110.92 109.306 111.13 109.793 111.13 C 110.146 111.13 110.413 111.057 110.593 110.91 C 110.766 110.757 110.853 110.55 110.853 110.29 C 110.853 109.863 110.69 109.47 110.363 109.11 C 110.036 108.757 109.453 108.237 108.613 107.55 L 107.443 106.57 C 106.583 105.837 105.906 105.13 105.413 104.45 C 104.913 103.77 104.663 102.927 104.663 101.92 C 104.663 101.04 104.893 100.263 105.353 99.59 C 105.813 98.923 106.423 98.403 107.183 98.03 C 107.95 97.657 108.773 97.47 109.653 97.47 C 110.98 97.47 112.09 97.833 112.983 98.56 C 113.876 99.287 114.503 100.313 114.863 101.64 L 111.923 102.98 C 111.81 102.627 111.65 102.273 111.443 101.92 C 111.236 101.567 110.99 101.267 110.703 101.02 C 110.41 100.78 110.096 100.66 109.763 100.66 C 109.463 100.66 109.226 100.743 109.053 100.91 C 108.873 101.077 108.783 101.3 108.783 101.58 C 108.783 101.933 108.983 102.317 109.383 102.73 C 109.783 103.143 110.34 103.637 111.053 104.21 L 112.203 105.22 C 112.67 105.613 113.126 106.033 113.573 106.48 C 114.02 106.927 114.386 107.423 114.673 107.97 C 114.966 108.51 115.113 109.123 115.113 109.81 C 115.113 110.743 114.88 111.543 114.413 112.21 C 113.946 112.87 113.333 113.37 112.573 113.71 C 111.82 114.043 111.013 114.21 110.153 114.21 Z" transform="matrix(1, 0, 0, 1, 0, 0)" style="fill: rgb(255, 255, 255); white-space: pre;"/>
  </g>
</svg>